<?xml version="1.0" standalone="no"?>
<!DOCTYPE svg PUBLIC "-//W3C//DTD SVG 20010904//EN"
 "http://www.w3.org/TR/2001/REC-SVG-20010904/DTD/svg10.dtd">
<svg version="1.0" xmlns="http://www.w3.org/2000/svg"
 width="260.000000pt" height="260.000000pt" viewBox="0 0 260.000000 260.000000"
 preserveAspectRatio="xMidYMid meet">
<metadata>
Created by potrace 1.14, written by Peter Selinger 2001-2017
</metadata>
<g transform="translate(0.000000,260.000000) scale(0.100000,-0.100000)"
fill="#000000" stroke="none">
<path d="M0 1300 l0 -1300 1300 0 1300 0 0 1300 0 1300 -1300 0 -1300 0 0
-1300z m1105 245 c143 -46 307 -58 401 -30 43 12 47 12 30 0 -35 -26 -129 -57
-223 -73 -82 -15 -102 -15 -190 -2 -146 22 -370 18 -458 -8 -38 -11 -71 -20
-72 -19 -1 1 36 32 81 69 63 51 94 69 132 77 67 14 238 6 299 -14z m827 -158
c166 -50 335 -58 437 -22 68 24 37 -1 -42 -33 -147 -61 -302 -76 -472 -46
-122 22 -330 14 -434 -16 -40 -11 -75 -19 -77 -17 -2 2 36 36 84 75 104 84
132 92 302 88 90 -2 134 -8 202 -29z m-942 -146 c255 -66 321 -75 545 -75 189
-1 277 8 382 40 45 13 -110 -62 -171 -83 -242 -85 -514 -99 -783 -41 -93 20
-135 23 -298 22 -188 0 -290 -12 -435 -49 -30 -8 -56 -13 -58 -11 -1 2 49 49
112 104 112 97 118 101 188 116 110 23 124 25 248 21 94 -3 143 -11 270 -44z"/>
</g>
</svg>
